{"glyphs":{":":{"x_min":0,"x_max":272,"ha":272,"o":"m 143 465 q 186 465 203 414 l 203 398 q 203 362 152 344 l 143 344 q 82 353 82 404 q 94 465 143 465 z m 137 139 l 145 139 q 191 139 203 84 l 203 74 q 203 32 145 18 q 82 28 82 80 q 95 139 137 139 z"},"$":{"x_min":0,"x_max":495,"ha":495,"o":"m 233 807 l 243 807 q 267 807 274 771 l 274 708 q 320 705 376 654 q 397 633 397 622 l 397 610 q 397 586 361 580 q 347 580 314 616 q 298 629 274 637 l 274 412 q 361 380 397 312 q 426 258 426 210 q 426 74 286 13 l 274 11 l 274 -51 q 266 -87 239 -87 q 201 -79 201 -51 l 201 0 q 201 3 158 9 q 73 38 37 98 l 35 109 q 41 146 71 146 q 90 146 124 104 q 166 76 201 74 l 201 357 q 137 377 112 412 q 63 463 63 529 l 63 542 q 63 635 158 691 q 189 707 201 707 l 201 775 q 211 807 233 807 z m 135 533 l 135 518 q 135 457 201 421 l 201 623 q 135 590 135 533 z m 274 327 l 274 77 l 276 77 q 352 122 352 190 l 352 209 q 352 279 274 327 z"},"?":{"x_min":0,"x_max":479,"ha":479,"o":"m 243 700 q 331 700 402 622 q 452 560 452 485 q 452 393 369 321 q 283 274 283 184 q 278 147 247 147 q 211 155 211 178 l 211 193 q 211 308 333 383 q 379 429 379 491 q 379 569 296 616 q 259 627 237 627 q 156 627 110 541 l 97 478 q 81 458 65 458 q 28 465 28 493 q 28 592 126 667 q 187 700 243 700 z m 241 97 l 249 97 q 281 97 294 56 l 294 43 q 286 -3 243 -3 q 195 7 195 45 q 195 87 241 97 z"},"<":{"x_min":0,"x_max":495,"ha":495,"o":"m 405 538 q 442 529 442 501 l 442 497 q 442 469 378 438 q 375 434 169 308 q 177 299 431 142 q 442 128 442 114 l 442 112 q 442 81 403 75 q 388 75 331 114 l 69 276 q 56 292 56 306 q 56 334 110 358 q 389 538 401 538 z"},"'":{"x_min":0,"x_max":169,"ha":169,"o":"m 84 755 q 121 746 121 722 q 111 569 96 569 l 82 565 q 58 565 55 626 l 45 716 q 53 755 84 755 z"},"=":{"x_min":0,"x_max":495,"ha":495,"o":"m 104 407 l 402 407 q 431 407 439 368 q 431 331 402 331 l 104 331 q 72 331 66 372 q 76 407 104 407 z m 105 245 l 400 245 q 439 237 439 206 q 432 168 402 168 l 100 168 q 72 168 66 209 q 66 236 105 245 z"},"a":{"x_min":0,"x_max":585,"ha":585,"o":"m 271 500 q 412 500 495 361 q 520 305 520 244 l 520 33 q 520 6 485 0 l 483 0 q 460 0 449 27 l 449 29 l 451 75 l 451 77 q 370 0 277 0 l 263 0 q 136 0 51 127 q 21 189 21 251 q 21 391 157 472 q 215 500 271 500 z m 92 253 l 92 248 q 92 139 201 84 q 236 71 263 71 l 277 71 q 368 71 427 162 q 449 205 449 244 l 449 251 q 449 356 345 412 q 309 428 271 428 l 269 428 q 158 428 103 313 q 92 278 92 253 z"},"L":{"x_min":0,"x_max":487,"ha":487,"o":"m 54 700 l 61 700 q 94 693 94 670 l 94 72 l 396 72 q 425 72 431 33 q 421 0 396 0 l 58 0 q 29 0 22 37 l 22 659 q 27 700 54 700 z"},"3":{"x_min":0,"x_max":466,"ha":466,"o":"m 217 699 q 299 699 359 625 q 392 581 392 526 l 392 519 q 392 443 326 385 q 421 315 421 210 q 421 101 318 29 q 265 0 213 0 l 208 0 q 85 0 17 127 q 0 174 0 211 q 0 237 39 245 q 66 245 72 208 q 72 129 155 83 q 185 72 213 72 q 296 72 338 158 q 348 184 348 203 l 348 217 q 348 295 261 338 l 201 352 q 182 366 182 383 l 182 385 q 182 419 232 419 q 268 419 307 467 q 322 499 322 524 q 322 584 263 616 q 242 627 215 627 q 147 627 118 554 q 112 500 105 500 q 92 486 79 486 q 42 494 42 517 l 42 526 q 42 622 138 679 q 175 697 217 699 z"},";":{"x_min":0,"x_max":272,"ha":272,"o":"m 130 452 q 174 452 191 401 l 191 386 q 191 349 140 331 l 130 331 q 70 340 70 392 q 82 452 130 452 z m 142 126 q 205 126 205 32 l 205 30 q 205 -61 95 -97 l 85 -97 q 62 -92 62 -73 l 62 -65 q 68 -42 89 -42 l 101 -44 q 150 -18 150 7 l 144 5 q 80 15 80 65 q 80 108 128 126 z"},"J":{"x_min":0,"x_max":499,"ha":499,"o":"m 421 703 l 427 703 q 454 703 460 667 l 460 217 q 460 100 351 30 q 299 0 245 0 l 236 0 q 128 0 56 104 q 22 159 22 219 q 30 254 54 254 l 62 254 q 97 254 97 196 q 100 156 145 107 q 189 72 241 72 q 344 72 382 180 q 388 199 388 219 l 388 669 q 394 703 421 703 z"},"V":{"x_min":0,"x_max":608,"ha":608,"o":"m 56 704 q 86 704 105 626 l 287 145 l 289 145 l 492 689 q 507 704 522 704 l 524 704 q 552 704 559 667 l 326 37 q 317 0 289 0 l 287 0 q 254 0 237 72 q 17 653 17 665 l 17 668 q 17 698 56 704 z"},"\"":{"x_min":0,"x_max":272,"ha":272,"o":"m 78 761 q 115 752 115 728 q 104 576 89 576 l 76 572 q 51 572 48 632 l 39 722 q 46 761 78 761 z m 199 761 q 224 761 234 724 q 220 580 212 580 q 204 572 197 572 l 195 572 q 167 572 167 638 l 158 728 q 158 754 199 761 z"},"7":{"x_min":0,"x_max":471,"ha":471,"o":"m 51 698 l 407 698 q 440 691 440 668 l 440 659 q 440 649 421 622 l 75 9 q 62 0 51 0 l 50 0 q 15 6 15 35 l 15 41 q 20 58 337 617 l 340 626 l 57 626 q 20 633 20 663 q 28 698 51 698 z"},"S":{"x_min":0,"x_max":452,"ha":452,"o":"m 222 702 q 312 702 373 620 l 375 612 l 375 601 q 375 577 339 571 q 325 571 289 610 q 257 631 228 631 l 216 631 q 155 631 123 565 q 116 550 116 534 l 116 519 q 116 448 201 416 q 263 416 334 358 q 403 289 403 205 q 403 103 315 37 q 261 0 196 0 q 90 0 21 91 l 17 106 q 23 142 52 142 q 72 142 103 103 q 148 71 187 71 l 203 71 q 277 71 323 155 q 330 182 330 196 l 330 214 q 330 288 246 334 l 151 360 q 44 421 44 521 l 44 534 q 44 631 149 687 q 188 702 222 702 z"},"}":{"x_min":0,"x_max":495,"ha":495,"o":"m 86 771 l 162 771 q 230 771 258 694 l 260 677 l 260 394 q 260 363 302 363 l 332 363 q 361 354 361 330 l 361 323 q 361 298 326 292 l 288 292 q 258 292 258 246 l 258 -25 q 258 -86 182 -116 l 160 -118 l 86 -118 q 52 -113 52 -83 l 52 -82 q 58 -47 84 -47 l 152 -47 q 187 -47 187 -18 l 187 257 q 187 298 211 328 q 189 360 189 387 l 189 670 q 189 699 154 699 l 84 699 q 58 699 52 734 q 57 771 86 771 z"},"Z":{"x_min":0,"x_max":621,"ha":621,"o":"m 48 702 l 546 702 q 573 702 580 667 l 580 665 q 580 651 539 604 l 128 72 l 544 72 q 580 67 580 37 l 580 35 q 573 0 544 0 l 52 0 q 22 0 17 39 q 17 53 105 163 l 467 630 l 54 630 q 17 637 17 667 q 24 702 48 702 z"},"x":{"x_min":0,"x_max":473,"ha":473,"o":"m 54 491 q 76 491 110 439 q 202 330 221 301 l 223 301 q 239 317 370 482 q 376 488 393 491 q 427 483 427 461 l 427 450 q 427 439 363 364 l 268 244 q 427 52 427 43 l 427 32 q 427 6 393 0 l 392 0 q 371 0 345 41 l 223 190 q 80 11 72 5 q 63 0 54 0 l 53 0 q 24 0 19 38 q 19 52 87 129 l 178 246 l 22 441 l 19 456 q 26 491 54 491 z"},")":{"x_min":0,"x_max":370,"ha":370,"o":"m 68 781 l 76 781 q 102 781 123 714 q 208 509 208 291 q 208 34 97 -194 q 83 -203 72 -203 l 68 -203 q 39 -203 33 -166 l 72 -67 q 136 113 136 289 q 136 510 35 736 l 33 744 q 39 781 68 781 z"},"&":{"x_min":0,"x_max":711,"ha":711,"o":"m 239 700 l 249 700 q 343 700 388 596 q 393 573 393 556 l 393 546 q 393 475 317 415 l 299 395 l 456 237 l 458 237 l 534 313 q 546 322 558 322 q 592 322 597 281 q 597 261 532 204 l 512 182 l 617 76 q 625 66 625 56 l 625 50 q 617 15 589 15 l 584 15 q 563 15 515 70 l 456 128 q 351 13 317 13 q 285 0 252 0 q 145 0 82 107 q 63 151 63 191 q 63 286 167 370 l 189 395 q 99 479 99 521 q 95 521 95 554 q 95 645 193 692 q 219 700 239 700 z m 173 561 l 173 546 q 173 509 243 450 l 245 450 q 317 512 317 546 l 317 554 q 317 600 262 622 l 243 624 q 198 624 176 576 z m 141 194 l 141 185 q 141 113 223 82 l 250 78 q 314 78 373 152 l 402 182 l 245 339 l 243 339 q 143 250 143 209 z"},"_":{"x_min":0,"x_max":468,"ha":468,"o":"m 37 -14 l 469 -14 q 505 -21 505 -48 l 505 -54 q 498 -88 471 -88 l 37 -88 q 6 -88 0 -48 q 10 -14 37 -14 z"},"v":{"x_min":0,"x_max":553,"ha":553,"o":"m 47 502 l 51 502 q 80 502 101 442 l 258 119 q 429 481 439 493 q 452 502 463 502 q 500 496 500 468 l 500 466 q 500 457 419 290 l 284 11 q 269 0 258 0 l 256 0 q 225 0 201 70 q 24 432 14 460 l 14 469 q 21 502 47 502 z"},"O":{"x_min":0,"x_max":779,"ha":779,"o":"m 369 701 q 546 701 666 537 q 719 443 719 349 q 719 173 561 57 q 471 0 373 0 l 365 0 q 185 0 70 168 q 19 253 19 352 q 19 520 166 634 q 262 701 369 701 z m 90 347 q 90 213 208 122 q 282 72 365 72 l 375 72 q 505 72 596 188 q 647 263 647 351 q 647 501 509 590 q 441 629 369 629 q 231 629 140 509 q 90 437 90 347 z"},"(":{"x_min":0,"x_max":370,"ha":370,"o":"m 294 779 l 300 779 q 333 773 333 746 l 333 740 l 296 641 q 232 469 232 288 q 232 62 333 -159 l 335 -167 q 329 -204 300 -204 l 296 -204 q 265 -204 246 -137 q 160 63 160 290 q 160 533 268 767 q 282 779 294 779 z"},"C":{"x_min":0,"x_max":666,"ha":666,"o":"m 379 701 q 488 701 583 635 q 590 621 590 613 l 590 609 q 590 578 551 574 l 549 574 l 485 607 q 420 627 379 627 q 248 627 152 507 q 104 427 104 351 q 104 197 249 107 q 312 74 376 74 l 381 74 q 462 74 545 125 l 557 125 q 590 118 590 92 l 590 87 q 590 48 466 11 q 428 0 385 0 l 376 0 q 203 0 86 161 q 31 253 31 351 q 31 533 197 647 q 286 701 379 701 z"},"W":{"x_min":0,"x_max":868,"ha":868,"o":"m 50 701 l 58 701 q 89 701 98 646 l 235 170 l 239 170 q 381 674 391 688 q 403 701 417 701 l 422 701 q 455 701 464 635 q 478 599 600 168 l 602 168 l 751 685 q 765 701 777 701 l 785 701 q 818 694 818 672 l 818 663 l 631 15 q 616 0 602 0 l 600 0 q 565 0 555 68 q 435 477 420 537 l 418 537 l 269 17 q 255 0 239 0 l 231 0 q 201 0 190 70 q 32 610 19 666 q 26 701 50 701 z"},"A":{"x_min":0,"x_max":582,"ha":582,"o":"m 271 697 q 305 697 321 629 q 543 52 545 39 l 545 33 q 545 6 510 0 l 508 0 q 476 0 462 62 l 380 277 l 165 277 l 64 11 q 50 0 39 0 l 35 0 q 0 6 0 35 l 0 37 l 62 206 q 226 632 240 679 q 257 697 271 697 z m 271 558 l 194 349 l 352 349 l 352 351 l 273 558 z"},"f":{"x_min":0,"x_max":423,"ha":423,"o":"m 292 702 l 336 702 q 362 702 368 663 q 368 638 331 629 l 303 629 q 235 629 214 555 l 212 517 l 212 491 l 292 491 l 321 492 q 345 492 353 457 l 353 452 q 353 428 319 420 l 212 420 l 212 54 l 214 33 q 214 8 177 0 q 152 0 140 31 l 142 54 l 142 420 l 45 420 q 20 420 14 459 q 14 478 44 492 l 81 491 l 140 491 l 140 524 q 140 648 249 694 z"},"Q":{"x_min":0,"x_max":781,"ha":781,"o":"m 373 701 q 550 701 670 537 q 723 444 723 349 q 723 235 647 133 l 647 131 q 725 55 725 39 l 725 35 q 725 8 688 0 q 667 0 618 59 q 604 70 598 81 q 494 0 376 0 l 369 0 q 189 0 74 168 q 22 253 22 352 q 22 520 170 634 q 266 701 373 701 z m 94 347 q 94 213 212 122 q 286 72 369 72 l 378 72 q 470 72 546 133 q 472 214 463 227 l 463 240 q 470 273 497 273 l 502 273 q 521 273 563 221 l 598 186 l 600 186 q 651 265 651 351 q 651 501 513 590 q 445 629 373 629 q 235 629 144 509 q 94 437 94 347 z"},"w":{"x_min":0,"x_max":691,"ha":691,"o":"m 53 493 q 86 493 99 420 l 188 149 l 189 149 q 290 471 297 480 q 310 491 324 493 q 356 493 367 433 l 459 149 l 460 149 q 558 458 566 477 q 582 493 595 493 q 631 485 631 457 l 489 14 q 474 0 460 0 l 459 0 q 426 0 412 70 q 326 332 326 340 l 322 340 l 218 16 q 206 0 189 0 l 188 0 q 162 0 151 32 l 17 457 q 24 493 53 493 z"},"-":{"x_min":0,"x_max":327,"ha":327,"o":"m 70 316 l 266 316 q 294 316 303 277 q 294 240 266 240 l 70 240 q 39 240 33 281 q 43 316 70 316 z"},"E":{"x_min":0,"x_max":534,"ha":534,"o":"m 66 704 l 75 702 l 438 702 l 446 704 q 478 704 483 664 q 476 630 442 630 l 103 630 l 103 380 l 325 380 l 352 382 q 376 382 385 345 q 385 320 355 308 l 318 310 l 103 310 l 103 72 l 451 72 q 477 72 483 33 q 473 0 450 0 l 66 0 q 31 6 31 35 l 31 667 q 36 702 66 702 z"},"s":{"x_min":0,"x_max":473,"ha":473,"o":"m 217 497 q 343 497 415 383 l 416 369 l 416 367 q 416 338 380 333 q 356 333 331 374 q 281 423 217 423 q 134 423 85 343 l 84 334 q 84 310 138 305 q 346 255 366 248 q 418 213 418 161 l 418 159 q 418 84 308 21 q 260 0 207 0 q 97 0 21 103 q 13 114 13 123 l 13 134 q 13 160 53 165 q 70 165 102 119 q 150 74 214 74 q 290 74 340 146 l 344 157 l 344 159 q 344 183 312 186 q 69 240 55 253 q 10 287 10 336 q 10 404 109 468 q 164 497 217 497 z"},">":{"x_min":0,"x_max":495,"ha":495,"o":"m 106 547 q 120 547 221 480 q 430 352 446 338 q 454 328 454 316 l 454 312 q 454 285 407 266 q 122 84 112 84 l 104 84 q 67 91 67 121 l 67 123 q 67 151 129 182 l 340 316 q 88 471 77 482 q 67 496 67 508 q 75 547 106 547 z"},"l":{"x_min":0,"x_max":231,"ha":231,"o":"m 63 697 l 70 697 q 104 690 104 667 l 104 72 l 142 72 q 166 72 173 37 l 173 35 q 167 0 138 0 l 67 0 q 39 0 32 37 l 32 657 q 36 697 63 697 z"},"8":{"x_min":0,"x_max":475,"ha":475,"o":"m 218 703 q 302 703 360 628 q 394 583 394 529 l 394 520 q 394 446 327 386 q 423 317 423 211 q 423 106 327 35 q 273 0 214 0 l 205 0 q 104 0 31 100 q 0 157 0 211 q 0 320 104 394 q 62 426 48 482 q 42 496 42 520 l 42 529 q 42 622 131 678 q 176 703 218 703 z m 115 521 q 115 452 198 423 l 218 421 q 291 421 318 499 l 322 525 q 322 602 240 626 l 216 628 q 146 628 118 553 z m 72 212 q 72 115 174 78 q 188 72 214 72 q 306 72 346 174 l 350 202 l 350 220 q 350 299 259 342 q 233 350 212 350 q 113 350 78 248 z"},"\\":{"x_min":0,"x_max":337,"ha":337,"o":"m 37 756 l 39 756 q 76 756 96 672 q 273 195 344 -6 q 337 -45 307 -45 l 299 -45 q 269 -45 248 37 q 18 658 0 717 q 6 756 37 756 z"},"e":{"x_min":0,"x_max":569,"ha":569,"o":"m 265 500 q 410 500 490 363 q 517 310 517 247 l 517 237 q 511 201 482 201 l 97 201 q 119 128 190 89 q 232 73 269 73 q 311 73 366 101 l 376 101 q 409 94 409 67 l 409 62 q 409 17 278 0 l 265 0 q 130 0 49 126 q 17 186 17 250 q 17 388 146 469 q 209 500 265 500 z m 91 272 l 442 272 q 442 310 398 369 q 338 426 280 426 l 260 426 q 172 426 115 340 q 96 306 91 272 z"},"b":{"x_min":0,"x_max":601,"ha":601,"o":"m 69 699 l 74 699 q 107 692 107 667 l 107 428 q 188 505 289 505 q 386 505 465 432 q 541 352 541 253 q 541 111 406 29 q 348 0 294 0 l 279 0 q 177 0 89 96 q 36 167 36 266 l 36 667 q 36 692 69 699 z m 107 258 l 107 249 q 107 136 226 81 q 257 72 283 72 l 294 72 q 404 72 460 190 q 469 226 469 245 l 469 256 q 469 369 349 424 q 312 434 292 434 l 285 434 q 175 434 119 317 q 107 285 107 258 z"},"%":{"x_min":0,"x_max":786,"ha":786,"o":"m 221 701 l 230 701 q 312 701 369 627 q 402 578 402 527 q 402 413 284 359 q 250 350 228 350 l 225 350 q 122 350 67 449 q 49 487 49 525 q 49 641 171 693 q 196 701 221 701 z m 628 701 l 633 701 q 667 694 667 667 l 667 660 q 667 649 598 562 l 178 7 q 164 0 156 0 l 154 0 q 119 7 119 31 l 119 39 q 119 54 171 117 l 607 693 q 619 701 628 701 z m 121 527 l 121 523 q 121 450 202 423 l 221 422 l 230 422 q 302 422 328 505 l 330 525 q 330 601 250 627 l 227 631 q 152 631 125 553 z m 561 353 q 664 353 724 246 q 737 207 737 178 l 737 172 q 737 69 628 13 q 594 0 561 0 l 558 0 q 468 0 410 87 q 385 129 385 170 l 385 181 q 385 274 478 331 q 522 353 561 353 z m 456 178 q 456 104 532 76 l 558 72 l 565 72 q 635 72 663 152 l 665 168 l 665 181 q 665 254 580 279 l 561 281 q 483 281 458 194 z"},"m":{"x_min":0,"x_max":818,"ha":818,"o":"m 67 491 q 101 482 101 461 l 101 443 q 161 491 230 491 q 323 491 394 405 q 422 458 512 486 l 553 491 q 665 491 730 384 q 752 339 752 298 l 752 30 q 752 7 718 0 l 716 0 q 682 6 682 34 l 682 294 q 682 382 589 416 l 564 419 l 546 419 q 472 419 433 333 q 427 314 427 301 l 427 36 q 421 0 394 0 l 392 0 q 357 6 357 32 l 357 253 q 357 345 333 368 q 294 419 232 419 l 227 419 q 141 419 106 328 q 101 306 101 271 l 101 32 q 101 6 67 0 l 65 0 q 38 0 31 36 l 31 450 q 35 491 67 491 z"},"#":{"x_min":0,"x_max":652,"ha":652,"o":"m 486 699 q 520 689 520 667 l 520 662 q 520 648 482 472 l 536 472 l 553 474 q 580 474 587 437 q 580 400 551 400 l 468 400 l 450 307 l 518 307 q 560 303 560 270 q 553 235 525 235 l 525 233 l 516 235 l 435 235 q 394 30 387 16 q 375 -1 357 -1 l 354 -1 q 321 6 321 32 l 321 34 l 361 235 l 256 235 q 251 235 230 115 q 210 17 205 14 q 193 -3 175 -3 q 138 4 138 34 l 179 235 l 129 235 l 118 233 q 90 233 83 271 l 83 273 q 83 298 120 307 l 195 307 l 214 400 l 147 400 q 111 408 111 437 q 117 472 144 472 l 144 474 l 162 472 l 229 472 q 269 686 276 686 q 290 697 304 697 q 334 697 339 660 l 302 472 l 409 472 q 448 675 455 684 q 469 699 486 699 z m 288 400 l 269 307 l 376 307 l 394 400 z"},",":{"x_min":0,"x_max":272,"ha":272,"o":"m 124 138 l 132 138 q 198 124 198 71 l 200 69 l 198 67 l 198 65 l 202 38 l 202 30 q 202 -60 112 -104 q 94 -116 83 -116 q 62 -116 58 -87 q 58 -64 99 -56 q 119 -44 140 -17 l 147 5 l 124 1 q 52 13 52 71 l 52 73 q 52 113 103 134 q 110 138 124 138 z"},"n":{"x_min":0,"x_max":584,"ha":584,"o":"m 75 500 q 109 491 109 468 l 109 428 q 188 500 282 500 q 385 500 465 414 q 523 342 523 263 l 523 31 q 523 7 488 0 l 486 0 q 452 6 452 35 l 452 239 q 452 376 333 419 q 305 427 282 427 l 277 427 q 178 427 124 324 q 109 293 109 224 l 109 33 q 109 6 75 0 l 73 0 q 45 0 38 37 l 38 458 q 42 500 75 500 z"},"h":{"x_min":0,"x_max":549,"ha":549,"o":"m 67 698 l 74 698 q 107 691 107 669 l 107 444 q 178 505 259 505 q 382 505 456 389 q 483 337 483 291 l 483 33 q 483 6 448 0 l 447 0 q 420 0 412 33 l 412 280 q 412 380 309 424 q 284 431 259 431 q 156 431 115 322 q 107 299 107 245 l 107 33 q 107 6 72 0 l 71 0 q 44 0 36 33 l 36 664 q 43 698 67 698 z"},"z":{"x_min":0,"x_max":497,"ha":497,"o":"m 51 494 l 69 492 l 381 492 l 397 494 q 430 484 430 463 l 430 453 q 430 441 388 396 l 128 70 l 397 70 q 430 64 430 38 l 430 32 q 430 6 396 0 l 53 0 q 24 0 19 38 q 19 52 92 137 l 320 424 l 78 424 l 49 422 q 19 433 19 458 q 24 492 51 492 z"},"B":{"x_min":0,"x_max":487,"ha":487,"o":"m 62 699 l 71 698 l 183 698 l 190 699 q 274 699 334 620 q 364 576 364 524 l 364 519 q 364 456 314 399 q 434 333 434 208 q 434 82 303 15 q 261 0 228 0 l 62 0 q 27 6 27 35 l 27 663 q 32 698 62 698 z m 99 626 l 99 419 l 167 419 q 257 419 283 484 q 290 502 290 521 l 290 526 q 290 598 207 624 l 168 626 z m 99 348 l 99 72 l 194 72 q 300 72 336 132 q 360 166 360 208 l 360 211 q 360 311 251 344 l 200 348 z"},"K":{"x_min":0,"x_max":543,"ha":543,"o":"m 65 700 l 67 700 q 102 694 102 667 l 102 348 q 444 689 447 689 l 460 691 l 463 691 q 497 685 497 658 l 497 652 q 497 634 458 603 l 231 374 l 491 52 l 493 41 l 493 35 q 493 8 458 2 l 456 2 q 434 2 395 59 l 178 323 l 102 245 l 102 33 q 102 6 67 0 l 65 0 q 37 0 30 37 l 30 664 q 37 700 65 700 z"},"R":{"x_min":0,"x_max":477,"ha":477,"o":"m 52 701 l 206 701 q 304 701 366 597 q 386 557 386 514 l 386 506 q 386 410 292 348 l 274 338 q 442 49 442 42 l 442 33 q 442 6 407 0 l 405 0 q 378 0 350 63 l 198 322 l 93 322 l 93 33 q 93 6 58 0 l 56 0 q 27 0 21 37 l 21 660 q 25 701 52 701 z m 93 630 l 93 394 l 198 394 q 285 394 312 488 l 314 503 l 314 518 q 314 587 237 623 q 215 630 168 630 z"},"T":{"x_min":0,"x_max":598,"ha":598,"o":"m 50 701 l 505 701 q 539 695 539 668 l 539 661 q 539 634 498 629 l 314 629 l 314 33 q 314 6 279 0 l 278 0 q 250 0 243 37 l 243 629 l 56 629 q 19 637 19 666 q 26 701 50 701 z"},"P":{"x_min":0,"x_max":470,"ha":470,"o":"m 54 702 l 223 702 q 321 702 391 600 q 417 548 417 506 l 417 493 q 417 400 333 333 q 277 294 223 294 l 95 294 l 95 33 q 95 6 60 0 l 58 0 q 29 0 22 37 l 22 661 q 27 702 54 702 z m 95 630 l 95 367 l 209 367 q 302 367 337 456 q 345 474 345 500 q 345 582 261 621 q 241 630 213 630 z"},"|":{"x_min":0,"x_max":495,"ha":495,"o":"m 246 791 l 250 791 q 284 784 284 757 l 284 -175 q 284 -198 246 -207 q 218 -207 210 -167 l 210 753 q 217 791 246 791 z"},"t":{"x_min":0,"x_max":344,"ha":344,"o":"m 132 679 l 139 679 q 171 672 171 650 l 171 489 l 245 489 l 261 491 q 286 491 294 455 q 294 430 264 419 l 237 421 l 171 421 l 171 158 q 171 89 216 73 l 257 70 l 277 70 q 300 70 307 36 l 307 34 q 301 0 273 0 l 235 0 q 150 0 108 93 q 101 116 101 147 l 101 421 l 65 421 l 37 419 q 6 430 6 455 q 12 489 39 489 l 39 491 l 57 489 l 101 489 l 101 639 q 105 679 132 679 z"},"M":{"x_min":0,"x_max":728,"ha":728,"o":"m 61 699 l 68 699 q 97 699 108 651 l 343 127 q 352 138 507 493 l 598 688 q 608 699 622 699 l 629 699 q 656 699 660 659 l 660 37 q 653 0 625 0 l 623 0 q 588 6 588 33 l 588 493 l 586 493 q 380 24 373 13 q 358 0 345 0 q 312 0 288 78 l 103 491 l 101 491 l 101 33 q 101 6 66 0 l 64 0 q 36 0 29 37 l 29 659 q 34 699 61 699 z"},"g":{"x_min":0,"x_max":590,"ha":590,"o":"m 268 499 q 378 499 460 406 q 516 329 516 261 l 514 199 l 514 -20 q 514 -82 420 -154 q 347 -202 268 -202 q 131 -202 42 -80 q 26 -53 26 -44 l 26 -39 q 26 -15 59 -7 l 64 -7 q 89 -7 106 -53 q 171 -135 268 -135 q 383 -135 442 -29 l 445 -6 l 445 76 q 365 1 273 1 l 258 1 q 158 1 72 96 q 19 170 19 250 q 19 371 126 453 q 194 499 268 499 z m 90 255 l 90 247 q 90 136 206 82 q 237 72 262 72 l 273 72 q 381 72 437 188 q 445 223 445 243 l 445 254 q 445 364 328 419 q 291 428 271 428 l 264 428 q 156 428 101 313 q 90 282 90 255 z"},"j":{"x_min":0,"x_max":320,"ha":320,"o":"m 213 624 q 249 616 249 587 q 249 557 211 551 q 179 561 179 582 l 179 593 q 179 615 213 624 z m 215 501 q 249 494 249 467 l 249 14 q 249 -121 121 -183 q 76 -199 43 -199 l 42 -197 l 40 -197 l 38 -199 l 36 -199 q 5 -199 0 -160 q 0 -133 40 -127 q 141 -127 175 -24 l 179 30 l 179 467 q 179 495 215 501 z"},"i":{"x_min":0,"x_max":210,"ha":210,"o":"m 86 628 q 122 619 122 597 l 122 586 q 122 560 83 555 q 58 555 50 591 q 57 628 86 628 z m 86 503 q 122 494 122 472 l 122 33 q 122 6 86 0 l 84 0 q 57 0 50 37 l 50 461 q 54 503 86 503 z"},"y":{"x_min":0,"x_max":446,"ha":446,"o":"m 367 494 q 400 488 400 462 l 400 460 q 399 448 232 50 q 153 -146 144 -158 q 135 -165 122 -168 q 87 -161 87 -139 l 87 -131 q 87 -125 164 60 l 164 62 l 2 457 l 2 458 q 9 492 36 492 q 65 492 85 425 q 196 162 200 148 l 201 148 q 335 475 343 484 q 355 494 367 494 z"},"@":{"x_min":0,"x_max":986,"ha":986,"o":"m 457 767 l 475 767 q 678 767 828 593 q 932 461 932 302 q 932 104 797 50 q 762 35 727 35 l 713 35 q 645 35 633 60 l 631 70 l 633 119 l 633 121 q 547 39 447 39 l 432 39 q 295 39 205 175 q 172 241 172 308 q 172 458 318 544 q 381 574 439 574 q 591 574 680 425 q 707 365 707 300 l 707 113 l 721 111 q 793 111 834 183 q 854 230 854 287 l 854 312 q 854 471 721 595 q 605 691 467 691 q 263 691 137 511 q 76 414 76 302 l 76 300 q 76 116 229 -8 q 337 -88 467 -88 q 576 -88 686 -22 l 695 -20 q 734 -28 734 -59 q 734 -107 570 -153 q 524 -165 480 -165 l 455 -165 q 286 -165 143 -36 q -2 110 -2 304 q -2 502 158 652 q 295 767 457 767 z m 248 310 l 248 304 q 248 188 365 128 q 402 115 432 115 l 447 115 q 544 115 607 212 q 631 258 631 300 l 631 308 q 631 420 520 480 q 481 498 439 498 l 438 498 q 319 498 260 375 q 248 336 248 310 z"},".":{"x_min":0,"x_max":272,"ha":272,"o":"m 131 134 q 183 134 197 73 l 197 61 q 197 24 150 3 q 144 0 131 0 l 129 0 q 75 0 63 68 q 63 111 112 130 q 119 134 131 134 z"},"p":{"x_min":0,"x_max":572,"ha":572,"o":"m 276 498 q 372 498 450 426 q 524 348 524 250 q 524 111 392 32 q 335 3 282 3 l 267 3 q 181 3 99 77 l 99 -172 q 99 -195 63 -203 q 37 -203 29 -167 l 29 234 q 29 422 206 487 q 228 494 276 498 z m 101 256 l 101 247 q 101 148 197 93 q 231 75 271 75 l 282 75 q 385 75 439 182 q 452 215 452 247 l 452 256 q 452 338 376 395 q 331 426 274 426 q 162 426 110 308 q 101 279 101 256 z"},"X":{"x_min":0,"x_max":635,"ha":635,"o":"m 45 702 l 53 702 q 75 702 88 674 l 296 409 l 520 696 q 529 702 538 702 l 544 702 q 571 702 577 667 l 577 665 q 577 649 527 591 l 340 350 l 573 52 l 577 37 l 577 35 q 571 0 542 0 l 540 0 q 516 0 500 35 l 296 294 l 72 7 q 62 0 51 0 l 49 0 q 14 6 14 35 l 14 41 q 14 53 94 150 l 251 354 q 21 645 16 656 l 14 667 q 22 702 45 702 z"},"*":{"x_min":0,"x_max":500,"ha":500,"o":"m 255 761 q 292 752 292 724 l 292 720 l 267 638 l 267 636 l 269 636 l 347 685 l 358 687 q 396 680 396 650 l 396 644 q 396 624 366 611 l 306 613 l 271 613 l 345 552 l 351 537 l 351 527 q 351 498 313 492 q 278 492 271 546 l 255 593 l 253 593 l 229 513 q 215 492 194 492 q 157 500 157 525 l 157 533 q 157 556 202 582 l 239 613 l 237 613 l 142 611 q 112 623 112 648 l 112 650 q 112 680 151 687 q 166 687 218 648 l 241 636 l 241 638 l 216 720 l 216 724 q 216 753 255 761 z"},"Y":{"x_min":0,"x_max":563,"ha":563,"o":"m 52 700 l 60 700 q 83 700 98 665 l 267 413 l 269 413 q 450 687 458 692 q 467 700 474 700 l 485 700 q 508 700 517 665 q 517 649 454 562 l 304 339 l 304 41 q 299 0 272 0 l 265 0 q 241 0 231 30 l 231 333 q 231 340 154 456 l 22 653 l 21 665 q 28 700 52 700 z"},"c":{"x_min":0,"x_max":506,"ha":506,"o":"m 267 501 q 364 501 443 428 q 448 418 448 410 l 448 408 q 442 373 414 373 l 412 373 q 398 373 353 408 q 312 428 272 428 l 262 428 q 155 428 101 316 q 88 279 88 249 q 88 140 200 84 q 233 71 271 71 q 334 71 395 123 l 410 126 l 416 126 q 442 126 448 91 l 448 90 q 448 52 331 7 q 292 0 272 0 l 258 0 q 157 0 70 95 q 17 170 17 250 q 17 373 125 456 q 193 501 267 501 z"},"!":{"x_min":0,"x_max":250,"ha":250,"o":"m 104 704 l 110 704 q 140 704 146 670 l 146 204 q 138 169 108 169 q 69 175 69 203 l 69 672 q 76 704 104 704 z m 100 101 l 104 101 q 154 93 154 56 l 154 45 q 154 10 108 0 l 102 0 q 63 0 54 50 q 64 101 100 101 z"},"/":{"x_min":0,"x_max":376,"ha":376,"o":"m 307 741 q 344 734 344 706 l 344 696 q 98 18 72 -44 q 58 -60 43 -60 l 39 -60 q 9 -60 2 -21 q 4 -8 273 723 q 291 741 307 741 z"},"[":{"x_min":0,"x_max":380,"ha":380,"o":"m 156 772 l 175 770 l 318 770 l 339 772 q 375 760 375 737 l 375 731 q 375 707 343 694 l 310 696 l 197 696 l 197 -130 l 339 -130 q 375 -138 375 -164 l 375 -169 q 375 -202 333 -207 l 160 -207 q 121 -199 121 -167 l 121 727 q 124 770 156 770 z"},"6":{"x_min":0,"x_max":464,"ha":464,"o":"m 278 701 q 303 701 311 664 q 311 649 267 580 l 175 419 l 175 417 l 203 419 l 219 419 q 319 419 390 318 q 421 263 421 210 q 421 105 326 35 q 271 0 213 0 l 204 0 q 104 0 31 100 q 0 156 0 210 q 0 281 52 350 l 250 692 q 266 701 278 701 z m 74 219 l 74 201 q 74 125 160 81 q 185 74 210 72 q 303 72 342 169 l 348 204 l 348 211 q 348 308 243 344 l 208 348 q 118 348 77 249 z"},"r":{"x_min":0,"x_max":452,"ha":452,"o":"m 85 503 q 120 495 120 472 l 120 432 q 201 503 292 503 q 342 503 397 479 q 412 464 412 450 l 412 448 q 406 414 377 414 l 375 414 q 325 430 300 430 l 289 430 q 181 430 131 318 q 120 288 120 250 l 120 33 q 120 6 85 0 l 83 0 q 55 0 48 37 l 48 461 q 53 503 85 503 z"},"2":{"x_min":0,"x_max":477,"ha":477,"o":"m 210 701 q 310 701 384 612 q 422 554 422 491 q 422 395 328 306 l 124 72 l 398 72 q 426 72 432 37 l 432 35 q 426 0 396 0 l 39 0 q 4 6 4 35 l 4 37 q 4 55 39 87 l 325 413 q 349 447 349 491 q 349 584 251 622 q 235 627 214 627 l 208 627 q 119 627 79 531 q 74 511 72 483 q 59 458 39 458 l 35 458 q 0 464 0 491 q 0 601 105 671 q 161 701 210 701 z"},"{":{"x_min":0,"x_max":495,"ha":495,"o":"m 333 776 l 402 776 q 435 776 443 747 l 443 735 q 443 712 410 704 l 339 704 q 304 704 304 667 l 304 384 q 304 361 281 325 q 305 298 305 262 l 305 -24 q 305 -54 341 -54 l 410 -54 q 443 -61 443 -87 l 443 -95 q 443 -119 408 -126 l 335 -126 q 262 -126 235 -45 l 233 -21 l 233 260 q 233 284 207 290 l 166 290 q 129 297 129 327 q 137 362 161 362 l 190 362 q 231 362 231 388 l 231 668 q 231 750 313 774 z"},"9":{"x_min":0,"x_max":475,"ha":475,"o":"m 210 701 q 320 701 390 596 q 419 541 419 492 q 419 414 355 338 l 110 9 q 97 0 86 0 q 49 7 49 37 q 49 53 108 125 l 225 284 l 223 284 l 212 282 q 92 282 24 395 q 0 445 0 492 q 0 608 113 677 q 163 701 210 701 z m 73 500 l 73 483 q 73 410 154 366 q 178 355 210 355 q 290 355 331 430 q 346 458 346 490 l 346 492 q 346 585 249 622 q 235 627 212 627 l 201 627 q 124 627 81 540 q 73 514 73 500 z"}," ":{"x_min":0,"x_max":248,"ha":248,"o":""},"I":{"x_min":0,"x_max":263,"ha":263,"o":"m 64 707 l 74 706 l 143 706 l 150 707 q 188 699 188 670 q 181 633 152 633 l 145 633 l 145 73 l 156 73 q 180 73 188 37 l 188 35 q 181 0 152 0 l 64 0 q 29 6 29 35 l 29 37 q 37 73 61 73 l 72 73 l 72 633 l 64 633 q 34 633 29 672 l 29 674 q 29 697 64 707 z"},"H":{"x_min":0,"x_max":579,"ha":579,"o":"m 54 700 l 61 700 q 94 693 94 670 l 94 378 l 442 378 l 442 665 q 448 700 475 700 l 480 700 q 514 693 514 667 l 514 31 q 514 7 479 0 l 477 0 q 442 6 442 35 l 442 309 l 94 309 l 94 33 q 94 6 60 0 l 58 0 q 29 0 22 37 l 22 659 q 27 700 54 700 z"},"4":{"x_min":0,"x_max":539,"ha":539,"o":"m 351 696 l 362 696 q 382 696 393 665 l 391 646 l 391 279 l 448 279 l 465 281 q 490 281 500 244 q 500 219 468 208 l 441 209 l 391 209 l 391 31 q 391 7 356 0 l 354 0 q 319 6 319 35 l 319 209 l 72 209 l 27 208 q 0 219 0 241 l 0 248 q 0 261 19 275 q 312 658 329 683 q 340 696 351 696 z m 112 279 l 319 279 l 319 549 z"},"~":{"x_min":0,"x_max":495,"ha":495,"o":"m 182 416 l 194 416 q 239 416 297 376 l 316 371 l 328 371 l 375 385 q 421 376 421 338 q 421 291 333 280 l 316 280 q 271 280 213 320 l 194 324 l 182 324 l 138 312 l 133 312 q 91 321 91 355 l 91 362 q 91 397 143 409 q 161 416 182 416 z"},"D":{"x_min":0,"x_max":583,"ha":583,"o":"m 62 704 l 71 702 l 166 702 l 186 704 q 344 704 460 566 q 534 470 534 348 q 534 180 386 65 q 292 0 188 0 l 62 0 q 27 6 27 35 l 27 667 q 32 702 62 702 z m 99 631 l 99 72 l 179 72 q 355 72 440 243 q 462 301 462 354 q 462 481 349 576 q 279 631 142 631 z"},"^":{"x_min":0,"x_max":460,"ha":460,"o":"m 188 700 l 195 700 q 221 700 250 644 q 363 472 363 462 l 363 450 q 363 423 322 417 q 298 417 254 499 l 191 591 l 84 425 q 67 417 57 417 q 30 417 21 456 q 21 472 61 528 q 162 688 172 694 z"},"0":{"x_min":0,"x_max":483,"ha":483,"o":"m 218 702 q 338 702 402 572 q 438 464 438 373 l 438 331 q 438 218 391 104 q 324 0 222 0 l 216 0 q 104 0 41 118 q 0 222 0 349 l 0 354 q 0 489 48 598 q 117 702 218 702 z m 66 360 l 66 340 q 66 212 113 125 q 158 70 214 70 l 220 70 q 345 70 366 262 q 371 292 373 353 q 373 459 336 558 q 290 631 220 631 q 134 631 94 537 q 66 445 66 360 z"},"F":{"x_min":0,"x_max":503,"ha":503,"o":"m 62 704 l 71 702 l 435 702 l 442 704 q 474 704 479 664 q 472 630 438 630 l 99 630 l 99 380 l 321 380 l 348 382 q 373 382 381 345 q 381 320 351 308 l 314 310 l 99 310 l 99 46 l 101 35 q 93 0 66 0 l 62 0 q 27 6 27 35 l 27 667 q 32 702 62 702 z"},"`":{"x_min":0,"x_max":367,"ha":367,"o":"m 138 689 l 144 689 q 163 689 197 648 q 285 565 285 554 l 287 544 q 279 507 250 507 l 246 507 q 224 507 166 574 q 103 628 103 650 l 103 656 q 103 681 138 689 z"},"k":{"x_min":0,"x_max":516,"ha":516,"o":"m 69 701 l 76 701 q 110 693 110 671 l 110 307 q 371 479 415 504 l 424 504 q 453 504 459 466 q 459 443 400 412 q 256 315 250 314 l 250 312 l 457 50 l 459 39 l 459 37 q 453 2 424 2 l 420 2 q 399 2 355 64 l 189 271 l 188 271 l 110 222 l 110 33 q 110 6 75 0 l 73 0 q 46 0 38 33 l 38 666 q 45 701 69 701 z"},"u":{"x_min":0,"x_max":580,"ha":580,"o":"m 71 501 q 105 493 105 470 l 105 274 q 105 149 177 106 q 222 71 278 71 q 384 71 438 181 q 450 217 450 252 l 450 465 q 457 501 486 501 q 521 494 521 467 l 521 31 q 521 7 486 0 l 484 0 q 450 6 450 35 l 450 69 l 448 69 q 372 0 283 0 l 271 0 q 157 0 73 112 q 34 172 34 260 l 34 459 q 39 501 71 501 z"},"]":{"x_min":0,"x_max":370,"ha":370,"o":"m 46 772 l 75 770 l 210 770 l 231 772 q 267 762 267 735 l 267 -173 q 267 -199 229 -207 l 50 -207 q 18 -207 13 -166 l 13 -164 q 13 -140 50 -128 l 60 -130 l 190 -130 l 190 696 l 83 696 l 46 694 q 13 705 13 733 q 13 760 46 772 z"},"U":{"x_min":0,"x_max":570,"ha":570,"o":"m 51 700 l 58 700 q 91 693 91 670 l 91 277 q 91 150 164 107 q 209 72 265 72 q 373 72 428 183 q 439 217 439 255 l 439 665 q 445 700 472 700 l 478 700 q 511 693 511 667 l 511 236 q 511 126 405 44 q 339 0 271 0 l 258 0 q 143 0 58 113 q 20 173 20 262 l 20 659 q 24 700 51 700 z"},"o":{"x_min":0,"x_max":571,"ha":571,"o":"m 267 497 q 363 497 441 424 q 516 346 516 249 q 516 109 383 29 q 326 0 272 0 l 258 0 q 158 0 71 94 q 19 169 19 249 q 19 370 125 452 q 194 497 267 497 z m 91 254 l 91 245 q 91 146 188 91 q 222 73 262 73 l 272 73 q 375 73 430 180 q 443 213 443 245 l 443 254 q 443 337 367 394 q 322 424 265 424 q 152 424 100 307 q 91 278 91 254 z"},"N":{"x_min":0,"x_max":645,"ha":645,"o":"m 50 699 l 57 699 q 81 699 98 662 q 125 631 499 149 q 502 149 502 144 l 504 142 l 506 142 l 506 666 q 512 699 539 699 l 544 699 q 572 699 578 664 l 578 37 q 578 6 539 0 q 518 0 475 64 l 90 555 l 90 35 q 90 8 55 2 l 54 2 q 25 2 19 39 l 19 658 q 23 699 50 699 z"},"+":{"x_min":0,"x_max":495,"ha":495,"o":"m 250 545 l 256 545 q 285 545 291 508 l 291 399 l 395 399 q 439 395 439 360 q 432 323 402 323 l 402 321 l 393 323 l 291 323 l 291 211 q 284 174 254 174 l 252 174 q 215 182 215 208 l 215 323 l 115 323 l 104 321 q 74 321 66 362 l 66 364 q 66 390 105 399 l 215 399 l 215 510 q 222 545 250 545 z"},"G":{"x_min":0,"x_max":631,"ha":631,"o":"m 364 701 q 476 701 565 639 q 574 626 574 615 l 574 613 q 574 584 537 578 q 531 578 465 609 q 422 625 382 625 l 353 625 q 250 625 155 526 q 94 442 94 354 l 94 347 q 94 204 227 113 q 296 74 366 74 l 373 74 q 441 74 510 111 l 510 279 l 376 279 q 342 285 342 314 l 342 315 q 348 351 376 351 l 548 351 q 576 351 582 315 l 582 111 q 582 66 560 55 q 465 0 376 0 l 366 0 q 192 0 76 161 q 21 251 21 351 q 21 527 177 642 q 273 701 364 701 z"},"q":{"x_min":0,"x_max":575,"ha":575,"o":"m 269 493 q 364 493 441 421 q 515 350 515 230 l 515 -169 q 507 -205 481 -205 q 445 -197 445 -174 l 445 74 q 365 0 274 0 l 260 0 q 160 0 74 94 q 22 168 22 247 q 22 367 128 448 q 196 493 269 493 z m 94 252 l 94 243 q 94 145 189 90 q 224 72 263 72 l 274 72 q 376 72 431 178 q 443 212 443 243 l 443 252 q 443 334 368 391 q 323 421 267 421 q 155 421 103 304 q 94 276 94 252 z"},"d":{"x_min":0,"x_max":586,"ha":586,"o":"m 479 699 l 487 699 q 520 692 520 669 l 520 304 l 522 242 q 522 169 463 90 q 379 0 275 0 l 260 0 q 158 0 70 96 q 17 172 17 253 q 17 375 125 459 q 195 505 270 505 q 366 505 450 430 l 450 638 l 448 667 q 458 699 479 699 z m 88 258 l 88 249 q 88 136 207 81 q 238 72 264 72 l 275 72 q 385 72 441 190 q 450 226 450 245 l 450 256 q 450 369 330 424 q 293 434 273 434 l 266 434 q 156 434 100 317 q 88 285 88 258 z"},"1":{"x_min":0,"x_max":277,"ha":277,"o":"m 149 702 l 155 702 q 188 694 188 670 l 188 35 q 182 0 153 0 l 151 0 q 116 7 116 31 l 116 616 q 66 600 51 600 q 28 600 20 633 l 20 643 q 20 670 94 685 z"},"5":{"x_min":0,"x_max":495,"ha":495,"o":"m 77 698 l 96 696 l 376 696 q 406 696 413 658 q 413 629 375 621 l 119 621 l 119 436 l 224 436 q 347 436 417 310 q 438 257 438 218 q 438 105 331 31 q 275 0 222 0 l 216 0 q 88 0 17 132 q 0 182 0 216 q 13 250 38 250 q 79 250 79 186 q 103 115 153 90 q 192 75 218 75 q 313 75 354 172 q 361 191 361 218 q 361 322 250 357 l 207 361 l 79 361 q 53 361 44 392 l 44 665 q 44 686 77 698 z"}}}
